<svg id="Layer_1" data-name="Layer 1" xmlns="http://www.w3.org/2000/svg" width="11in" height="11in" viewBox="0 0 792 792"><title>Artboard 1</title><circle cx="667.9" cy="327.9" r="93.3" fill="#fff"/><circle cx="650.9" cy="489.2" r="93.3" fill="#fff"/><rect x="332" y="167.8" width="135.6" height="465.82" transform="translate(800.5 0.9) rotate(90)" fill="#fff"/><circle cx="143.1" cy="302.8" r="93.3" fill="#fff"/><circle cx="124.1" cy="463.9" r="93.3" fill="#fff"/><g id="Loyal_Rescue" data-name="Loyal Rescue" style="isolation:isolate"><g style="isolation:isolate"><path d="M181.4,412.4v10.2h-31V358h11.8v54.4Z" fill="#71cfec"/><path d="M197.5,420.6a18.3,18.3,0,0,1-7.3-8.2,32.1,32.1,0,0,1-2.5-13,30.4,30.4,0,0,1,2.6-13,18.1,18.1,0,0,1,7.5-8.2,22.4,22.4,0,0,1,11.6-2.9,20.6,20.6,0,0,1,11.4,3,17.6,17.6,0,0,1,7.1,8.3,29.8,29.8,0,0,1,2.5,12.8,31.8,31.8,0,0,1-2.5,12.8,19.3,19.3,0,0,1-7.3,8.4,22.4,22.4,0,0,1-11.6,2.9A22.1,22.1,0,0,1,197.5,420.6Zm18.3-10.1c1.5-2.5,2.2-6.2,2.2-11.1s-.7-8.6-2.2-11.1a7.1,7.1,0,0,0-6.6-3.8,7.5,7.5,0,0,0-6.8,3.6c-1.6,2.3-2.3,6.1-2.3,11.3s.7,9,2.3,11.3a7.4,7.4,0,0,0,6.8,3.5A7.2,7.2,0,0,0,215.8,410.5Z" fill="#71cfec"/><path d="M251,419.4l-17.3-43h12.9l6.8,20.6,3,10.7,3-10.7,6.9-20.6h12.2l-23.6,63.7H243.5Z" fill="#71cfec"/><path d="M287.3,422a11.7,11.7,0,0,1-4.3-5,17.5,17.5,0,0,1-1.4-7,13,13,0,0,1,2.2-6.8c1.5-2.2,4.2-4.1,8-5.7s9-2.4,15.6-2.4V393a8.4,8.4,0,0,0-1.9-5.9c-1.2-1.4-3.3-2.1-6.4-2.1a21.1,21.1,0,0,0-7,1.3,11.7,11.7,0,0,0-5.1,3l-3.7-8.9a31.5,31.5,0,0,1,7.8-3.6,32.2,32.2,0,0,1,10-1.5q6.6,0,10.5,2.1a11.1,11.1,0,0,1,5.4,5.7,22.6,22.6,0,0,1,1.6,9.2v30.3h-9.9l-.9-6.6a15.7,15.7,0,0,1-5.8,5.9,15.1,15.1,0,0,1-7.8,2A11.7,11.7,0,0,1,287.3,422Zm16.3-8.7a14.2,14.2,0,0,0,3.8-4.3v-6.6h-2.3a21.6,21.6,0,0,0-8.3,1.5c-2.5,1.1-3.7,2.7-3.7,5.1s.5,3.7,1.5,4.7a6.2,6.2,0,0,0,4.5,1.4A8.2,8.2,0,0,0,303.6,413.3Z" fill="#71cfec"/><path d="M331.2,352.1h11.3v70.5H331.2Z" fill="#71cfec"/><path d="M403.3,422.6l-16.6-23.4v23.4H374.9V358h18c15.3,0,23,6.8,23,20.6a28.3,28.3,0,0,1-1.5,9,21.2,21.2,0,0,1-4.8,7.8,17.7,17.7,0,0,1-8.6,4.7l16.6,22.5Zm-11.7-29.2a11.3,11.3,0,0,0,6.7-1.9,11.7,11.7,0,0,0,4.3-5,17.2,17.2,0,0,0,1.4-6.8c0-4.3-1-7.4-2.9-9.4s-5.2-3.1-9.8-3.1h-4.6v26.2Z" fill="#71cfec"/><path d="M433.9,420.6a18.1,18.1,0,0,1-7.2-8.5,30.9,30.9,0,0,1-2.2-12,29.7,29.7,0,0,1,2.5-12.5,21.2,21.2,0,0,1,7.4-9,20.3,20.3,0,0,1,11.6-3.3c6.7,0,11.4,1.9,14.3,5.8s4.3,9.6,4.3,17.2a45.3,45.3,0,0,1-.2,5H436.6c.2,3.7,1.3,6.6,3.2,8.6s4.6,3.1,8.3,3.1a18.6,18.6,0,0,0,6.2-1.3,13.3,13.3,0,0,0,4.9-3.1l3.7,8.8c-4.4,2.9-10,4.4-16.7,4.4C441.2,423.8,437.1,422.7,433.9,420.6Zm19-24.5c0-4.6-.6-7.7-1.7-9.4a5.7,5.7,0,0,0-4.9-2.6,8,8,0,0,0-7,3.4,14.9,14.9,0,0,0-2.8,8.6Z" fill="#71cfec"/><path d="M477.8,421.8a14,14,0,0,1-5.4-3.6l3.4-8.8a19.5,19.5,0,0,0,12.6,4.9,7.1,7.1,0,0,0,4.5-1.2,3.7,3.7,0,0,0,1.5-3c0-1.3-.9-2.5-2.6-3.6a52,52,0,0,0-7.4-3.9,36.3,36.3,0,0,1-5.6-2.9,14.5,14.5,0,0,1-4.1-4.1,11.1,11.1,0,0,1-1.7-6.4,12.7,12.7,0,0,1,2-7.3,13.6,13.6,0,0,1,6-4.7,24.4,24.4,0,0,1,9.5-1.7,24,24,0,0,1,11.1,2.5,14.3,14.3,0,0,1,3,1.9l-3.2,8.4a20.9,20.9,0,0,0-4.9-2.8,15.6,15.6,0,0,0-5.7-1.1q-3.4,0-4.8.9a3.2,3.2,0,0,0-1.5,3,4.2,4.2,0,0,0,2.1,3.5,42.9,42.9,0,0,0,6.4,3.1,26.1,26.1,0,0,1,9.5,5.8,11.2,11.2,0,0,1,3.4,8.2,15.3,15.3,0,0,1-1.9,7.3,12.9,12.9,0,0,1-5.8,5.2,22.5,22.5,0,0,1-10,2C483.7,423.4,480.3,422.9,477.8,421.8Z" fill="#71cfec"/><path d="M522.4,420.5a19.3,19.3,0,0,1-7-8.7,31.1,31.1,0,0,1-2.2-12.1,29.3,29.3,0,0,1,2.5-12.2,20,20,0,0,1,19.2-12.2,27.3,27.3,0,0,1,7.4.9,17.4,17.4,0,0,1,6.1,3.3l-3.8,9.8a9.3,9.3,0,0,0-4-3.2,11.9,11.9,0,0,0-5.1-1.2c-6.7,0-10.1,4.9-10.1,14.7,0,5.1.8,8.8,2.5,11.1s4.2,3.5,7.6,3.5a14.8,14.8,0,0,0,5.7-1.1,10.4,10.4,0,0,0,4-2.9l3.6,8.3a14.6,14.6,0,0,1-3.1,2.3,20.9,20.9,0,0,1-5,2,22.7,22.7,0,0,1-6.5.9A20.8,20.8,0,0,1,522.4,420.5Z" fill="#71cfec"/><path d="M594.4,376.4v46.2H584l-.3-6a16.2,16.2,0,0,1-5,5.1,13.6,13.6,0,0,1-7.6,2c-4.6,0-8-1.5-10.2-4.4s-3.4-7-3.4-12.4V376.4h11.6v29.5c0,2.7.4,4.8,1.4,6.3a5.2,5.2,0,0,0,4.7,2.3,7.7,7.7,0,0,0,3.9-1.1,7.2,7.2,0,0,0,2.7-3,9.4,9.4,0,0,0,1.1-4.5V376.4Z" fill="#71cfec"/><path d="M614.6,420.6a18.1,18.1,0,0,1-7.2-8.5,30.9,30.9,0,0,1-2.2-12,29.7,29.7,0,0,1,2.5-12.5,21.2,21.2,0,0,1,7.4-9,20.3,20.3,0,0,1,11.6-3.3c6.7,0,11.4,1.9,14.3,5.8s4.3,9.6,4.3,17.2a45.3,45.3,0,0,1-.2,5H617.3c.2,3.7,1.3,6.6,3.2,8.6s4.7,3.1,8.3,3.1a18.6,18.6,0,0,0,6.2-1.3,13.3,13.3,0,0,0,4.9-3.1l3.7,8.8c-4.4,2.9-10,4.4-16.7,4.4C621.9,423.8,617.8,422.7,614.6,420.6Zm19-24.5c0-4.6-.6-7.7-1.7-9.4a5.7,5.7,0,0,0-4.9-2.6,8.1,8.1,0,0,0-7,3.4,14.9,14.9,0,0,0-2.8,8.6Z" fill="#71cfec"/></g></g></svg>